<svg fill="none" xmlns="http://www.w3.org/2000/svg" viewBox="0 0 413 247"><path fill-rule="evenodd" clip-rule="evenodd" d="M169.886 1.15041c-2.88 1.088-6.729 5.04-13.679 14.04799-1.533 1.988-4.233 4.344-6 5.237-1.766.893-4.184 2.51-5.371 3.595-1.488 1.358-3.655 1.995-6.965 2.045-3.205.048-5.464.685-6.78 1.911-1.085 1.011-3.055 1.838-4.378 1.838-1.564 0-2.588.699-2.928 2-.577 2.205-2.294 2.596-3.983.907-.761-.761-1.675-.78-3.014-.064-2.255 1.207-20.2585 1.919-21.9545.868-.873-.541-.88-1.464-.03-3.715 1.321-3.502 2.687-3.764 5.192-.996 2.5075 2.771 4.3505 2.499 5.0735-.75.336-1.512.832-3.559 1.102-4.548.269-.989-.037-2.432-.679-3.206-.643-.775-.861-1.906-.485-2.515.376-.609-.054-1.922-.956-2.919-.902-.996-1.508-2.206-1.348-2.687.537-1.609-4.2315-5.43099-7.4885-6.00299-1.771-.311-4.569-1.158-6.219-1.882-8.332-3.656996-17.6-2.32-21.116 3.047-.957 1.46-1.866 5.47199-2.155 9.50799l-.5 6.981-4.364 1.931c-2.428 1.074-4.365 2.614-4.365 3.471 0 1.37.376 1.36 3.409-.086 3.959-1.888 6.591-1.252 6.591 1.591 0 1.098.9 2.478 2 3.067 3.39 1.814 2.29 2.6-5.71 4.077-7.495 1.383-7.815 1.562-11.52 6.423-2.097 2.75-4.086 6.125-4.422 7.5-1.064 4.358-4.963 8.568-9.076 9.8-4.831 1.448-11.882 7.798-12.824 11.551-1.578 6.287 4.087 10.926 13.552 11.097l5.5.1.312 3.476c.183 2.041 1.159 4.133 2.364 5.067 1.596 1.236 2.084 2.828 2.189 7.1406.169 6.933-2.148 10.194-6.554 9.226-3.669-.805-3.825 1.636-.271 4.225 2.524 1.839 2.529 1.871.803 5.331-1.096 2.198-1.756 5.913-1.79 10.079-.056 6.989 1.269 9.907 4.501 9.907.996 0 2.77 1.348 3.943 2.996 2.431 3.415 9.011 7.498 13.631 8.459 2.658.553 3.217 1.201 3.724 4.324.327 2.02.164 4.105-.364 4.633-.813.813-35.703-1.566-60.46903-4.122-4.671-.482-5.276995-.322-5.760995 1.528-.701 2.681-.105 3.182 3.792005 3.182 2.23399 0 3.35799.54 3.67899 1.767.59 2.256 9.00303 3.674 36.77103 6.197 22.427 2.038 20.629 1.506 21.879 6.47 1.005 3.992 1.387 4.378 4.711 4.766 2.536.296 3.784-.011 4.175-1.029 1.03-2.685 3.235 1.881 3.235 6.699 0 2.468.548 6.002 1.217 7.853.874 2.416.916 3.842.152 5.054-.766 1.215-.702 3.065.23 6.597.712 2.7 1.042 6.169.734 7.709-.692 3.46 7.531 27.866 9.13 27.098.365-.175 2.694 1.553 5.175 3.84 3.746 3.452 4.9645 4.044 7.1845 3.487 1.47-.369 2.711-.746 2.757-.839.046-.093.834-1.282 1.752-2.642 1.933-2.865 2.207-12.01.568-19.027-.577-2.475-1.882-9.45-2.898-15.5-1.016-6.05-2.744-14.375-3.84-18.5-2.1975-8.272-3.4745-15-2.8465-15 .224 0 5.0155.94 10.6495 2.089 5.635 1.149 11.103 1.865 12.153 1.59 1.227-.32 2.283.203 2.959 1.466 1.239 2.314 7.873 46.44 7.903 52.56.019 4.019-.135 4.233-3.48 4.861-2.533.475-3.5 1.179-3.5 2.545 0 2.295.457 2.307 14.485.363 18.041-2.5 17.515-2.364 17.515-4.519 0-1.652-.702-1.955-4.525-1.955-3.817 0-4.663-.364-5.41-2.329-1.219-3.207-4.196-23.65-3.587-24.636.662-1.07 12.641-2.31 14.698-1.521.895.343 1.917 2.168 2.271 4.055.666 3.552 1.179 3.955 3.307 2.604 1-.635.955-2.784-.221-10.622-.812-5.405-1.694-10.045-1.961-10.312-1.439-1.439-3.572 1.023-3.572 4.121 0 2.734-.461 3.539-2.292 3.998-3.297.828-13.707 1.989-13.716 1.53-.005-.214-.686-5.519-1.514-11.79-.829-6.272-1.376-11.533-1.217-11.692.542-.542 13.224-2.391 16.45-2.398 2.911-.007 3.314.372 4.306 4.055.778 2.888 1.562 3.972 2.714 3.75 1.34-.259 1.577-1.525 1.367-7.307-.139-3.847-.386-7.128-.549-7.29-.827-.827-46.803 6.577-47.463 7.644-.581.94-2.753.774-9.494-.728-4.808-1.072-8.8645-2.102-9.0165-2.29-.755-.937-2.393-9.328-1.958-10.032.863-1.396 3.383-.882 3.383.69 0 .825.227 1.5.505 1.5.277 0 13.4395-1.559 29.2495-3.464s38.645-4.615 50.745-6.022c12.1-1.407 22.76-2.794 23.689-3.084 1.051-.327 2.104.248 2.785 1.522 1.505 2.811 4.658 2.566 8.931-.693 3.55-2.708 4.765-2.886 100.594-14.77l97.001-12.028.297-2.532.297-2.531-91.297 11.329c-63.059 7.825-91.916 11.042-93.297 10.399-1.1-.511-6.05-1.961-11-3.221-8.539-2.174-16.59-5.959-21-9.872-1.1-.976-3.224-2.395-4.72-3.154-1.496-.758-6.671-3.686-11.5-6.506-4.829-2.819-10.805-6.243-13.28-7.609-2.475-1.365-6.975-3.963-10-5.773-6.855-4.101-10.186-4.44-30.809-3.139-15.554.982-16.4.939-18.25-.911-1.068-1.068-2.419-1.941-3.002-1.941-1.403 0-.133-8.9736 1.557-10.9996.688-.825 1.545-3.142 1.904-5.15.788-4.401 1.927-5.452 6.93-6.387 4.629-.865 5.357-2.373 3.499-7.251-1.276-3.347-1.73-3.68-4.622-3.387-6.582.668-2.744-3.801 5.793-6.746 3.575-1.233 11.121-4.457 16.768-7.165 10.602-5.085 14.22-8.544 14.228-13.607.003-1.378 1.128-2.858 3.027-3.979 3.532-2.087 7.291-7.334 8.893-12.413.621-1.972 2.44-4.84 4.041-6.374 1.601-1.534 3.911-5.321 5.133-8.41499 1.222-3.094 2.602-6.054 3.066-6.576 2.327-2.618996.304-3.137996-4.765-1.224zM155.265 132.135c8.317 5.154 21.632 10.878 27.523 11.831 3.414.553 8.007 1.481 10.207 2.063 3.442.91 3.721 1.176 2 1.905-1.598.678-36.053 4.977-92 11.48l-4.9995.581v-4.797c0-4.116-.355-4.976-2.5-6.053-3.967-1.991-3.157-3.875 1.5-3.489 10.8665.9 10.7935.917 13.3835-3.064 2.265-3.481 3.309-4.009 15.522-7.843 7.202-2.262 13.544-4.259 14.094-4.439.55-.181 3.371-.364 6.27-.407 3.863-.058 6.265.538 9 2.232zm215.947 6.044c-11.183 1.675-13.728 2.355-13.49 3.605.184.971 1.766 1.725 4.283 2.04l3.99.5 1.747 8.5c.961 4.675 1.636 10.075 1.5 12l-.247 3.5-14.5 2.103c-7.975 1.157-14.887 1.76-15.361 1.339-.473-.42-1.496-5.64-2.273-11.6-1.309-10.047-1.287-10.927.302-12.089.943-.689 2.502-1.253 3.464-1.253.963 0 2.003-.409 2.312-.91.7-1.132-.412-4.228-1.318-3.668-.365.226-6.055 1.148-12.645 2.048-6.59.901-13.023 1.855-14.297 2.12-3.148.654-2.489 3.859.834 4.061 1.365.084 3.027.196 3.693.25 1.761.144 2.809 5.043 6.29 29.416 3.739 26.18 3.696 27.83-.751 29.14-2.214.652-3.25 1.572-3.25 2.887 0 1.749.496 1.868 5.25 1.255 18.196-2.343 24.851-3.366 25.388-3.904 1.579-1.578-.788-3.695-4.131-3.695-2.804 0-3.744-.493-4.442-2.329-1.457-3.833-4.17-23.968-3.337-24.77 1.19-1.144 29.544-5.033 30.378-4.166 1.355 1.407 3.833 25.633 2.755 26.932-.549.662-2.343 1.5-3.986 1.86-2.061.453-2.887 1.17-2.667 2.315.397 2.059.335 2.06 17.042-.212 12.128-1.649 13.75-2.092 13.75-3.75 0-1.469-.739-1.88-3.378-1.88-1.857 0-3.831-.562-4.386-1.25-1.695-2.102-8.601-48.255-8.057-53.845.27-2.767.837-3.423 3.571-4.126 2.285-.588 3.25-1.422 3.25-2.808 0-2.311.841-2.33-17.283.384zM87.8135 154.172c-.1 3.767-.418 7.085-.707 7.374-.289.289-2.232-.154-4.318-.984-3.571-1.422-3.832-1.823-4.461-6.852-.368-2.937-.44-5.711-.16-6.165.28-.453 2.606-.688 5.169-.522l4.659.301-.182 6.848zm193.1475-4.32c-10.071 1.788-18.403 7.184-21.115 13.674-2.105 5.038-1.705 13.182.899 18.278 3.123 6.113 7.26 8.008 18.927 8.669 15.48.877 18.823 2.852 18.823 11.123 0 6.087-2.348 10.029-7.316 12.285-10.198 4.629-21.935.479-23.331-8.249-.471-2.949-1.063-3.808-2.623-3.808-1.871 0-1.969.439-1.372 6.147.353 3.38.642 7.377.642 8.881 0 2.401.542 2.871 4.443 3.853 11.157 2.81 25.826.005 33.261-6.36 8.208-7.025 10.697-18.361 6.046-27.536-3.353-6.615-6.642-8.045-20.545-8.932-6.476-.414-12.793-1.297-14.037-1.963-4.122-2.206-5.594-10.609-2.607-14.873 3.085-4.405 11.161-6.746 17.97-5.21 4.657 1.05 6.481 2.817 7.364 7.132.457 2.235 1.259 3.361 2.396 3.361.94 0 1.709-.338 1.709-.75v-7.643c0-5.06-.381-7.039-1.432-7.443-2.961-1.136-13.251-1.498-18.102-.636zm-78.466 11.521c-17.655 4.896-27.019 18.049-25.742 36.159 1.359 19.285 12.232 31.98 29.045 33.913l5.803.667-3.793 3.106c-8.329 6.819-9.453 8.078-8.778 9.837.59 1.536 1.175 1.376 5.265-1.437l4.601-3.166 17.923 2.22c19.748 2.447 18.125 2.679 25.588-3.662 2.349-1.996 3.211-3.422 2.768-4.577-.589-1.535-.899-1.547-3.612-.144-4.078 2.109-11.571 1.854-24.568-.833-10.806-2.235-10.92-2.287-6.493-2.978 10.331-1.613 21.166-9.116 25.493-17.654 5.186-10.235 5.23-24.316.109-35.5-3.156-6.893-6.525-10.589-12.776-14.015-4.741-2.597-6.444-2.952-15.333-3.191-6.658-.18-11.838.24-15.5 1.255zm-145.7225 3.066c8.383.635 10.976 1.492 8.723 2.885-1.414.874-24.257-2.457-25.5-3.719-.675-.685.461-.822 3.5-.423 2.475.326 8.45.892 13.277 1.257zm33.249 2.192c-.307.308-1.114.001-1.793-.683-.98-.988-.865-1.102.56-.56.986.376 1.541.935 1.233 1.243zm132.0645 1.781c4.678 3.033 7.694 7.146 10.675 14.554 1.759 4.375 2.162 7.469 2.194 16.858.036 10.453-.188 11.907-2.463 15.97-6.36 11.358-22.564 13.111-31.63 3.421-9.671-10.337-13.032-34.107-6.351-44.917 3.587-5.804 8.837-8.246 18.034-8.388 4.37-.068 6.398.464 9.541 2.502zm-14.951 4.142c-2.392 4.626-2.044 12.671.853 19.718 1.344 3.271 2.244 6.148 1.999 6.393-.245.245-.735-.311-1.09-1.235-1.602-4.175-10.8-6.033-13.747-2.777-3.869 4.274-.135 13.597 5.197 12.976 2.042-.238 2.623-.857 2.634-2.805.01-1.808.622-2.587 2.212-2.813 3.138-.446 6.837 1.678 5.409 3.106-1.589 1.589-1.364 3.707.393 3.707 2.524 0 1.665 2.92-1.06 3.604-1.703.428-2.372 1.131-2 2.101.308.802.56 1.647.56 1.877 0 .23.877.418 1.948.418 1.072 0 3.194 1.154 4.716 2.565 2.591 2.4 2.85 2.452 4.052.809.706-.966 1.284-2.618 1.284-3.672 0-1.284.49-1.728 1.485-1.346.864.331 1.909-.224 2.5-1.327 1.414-2.643 1.377-2.707-1.985-3.379-2.749-.55-4.447-3.65-2-3.65.55 0 1-.675 1-1.5s-.713-1.5-1.583-1.5c-2.169 0-1.328-1.977 1.85-4.35 2.188-1.633 2.906-1.751 4.187-.688.85.705 1.546 1.903 1.546 2.66 0 1.955 2.392 1.707 4.345-.451 2.086-2.305 2.138-8.037.098-10.948-2.404-3.433-7.591-3.024-10.854.854-1.424 1.692-2.589 3.69-2.589 4.441 0 .75-.364 1.589-.81 1.864-.445.275-.615-2.185-.377-5.468.554-7.658-1.222-13.897-5.296-18.611l-3.237-3.744-1.64 3.171zm-115.6395 3.003c0 1.925.419 2.391 1.819 2.025 1.584-.415 2.168 1.084 4.528 11.633 4.1275 18.451 8.6525 42.353 8.6525 45.709 0 4.531-2.627 8.9-5.351 8.9-6.8375 0-15.5655-20.479-14.1215-33.135.464-4.069.231-6.433-.837-8.5-1.279-2.478-1.298-3.88-.137-10.365.738-4.125 1.365-10.27 1.394-13.656.049-5.653.217-6.114 2.053-5.634 1.327.347 2 1.364 2 3.023z" fill="#000"/></svg>