<?xml version="1.0" standalone="no"?>
<!DOCTYPE svg PUBLIC "-//W3C//DTD SVG 20010904//EN"
 "http://www.w3.org/TR/2001/REC-SVG-20010904/DTD/svg10.dtd">
<svg version="1.0" xmlns="http://www.w3.org/2000/svg"
 width="188.000000pt" height="188.000000pt" viewBox="0 0 188.000000 188.000000"
 preserveAspectRatio="xMidYMid meet">
<metadata>
Created by potrace 1.11, written by Peter Selinger 2001-2013
</metadata>
<g transform="translate(0.000000,188.000000) scale(0.100000,-0.100000)"
fill="#000000" stroke="none">
<path d="M1095 1769 c-90 -20 -197 -97 -231 -166 -25 -52 -41 -146 -38 -218 7
-150 92 -262 231 -305 30 -9 53 -21 52 -26 -2 -5 -20 -21 -41 -36 -53 -39 -78
-61 -78 -70 0 -14 29 -9 69 11 l38 20 149 -35 c188 -43 218 -43 273 -3 23 16
41 35 39 41 -3 7 -36 12 -84 14 -52 1 -112 12 -178 31 l-100 30 68 17 c118 29
194 80 241 160 29 49 34 74 42 191 5 81 3 97 -19 152 -14 34 -36 75 -49 91
-28 35 -97 76 -154 91 -57 14 -183 20 -230 10z m182 -73 c41 -21 76 -67 103
-136 19 -48 21 -67 16 -145 -3 -49 -8 -99 -10 -110 -2 -11 -6 -36 -10 -56 -15
-85 -141 -148 -233 -119 -116 38 -176 162 -168 350 5 119 40 184 120 222 48
22 133 20 182 -6z"/>
<path d="M1145 1644 c-14 -29 -16 -54 -13 -118 3 -45 9 -90 13 -100 8 -17 6
-17 -21 3 -43 32 -101 39 -119 15 -44 -58 20 -164 65 -108 24 28 47 35 64 19
8 -9 13 -22 9 -30 -3 -9 1 -22 8 -31 11 -13 8 -19 -15 -37 l-28 -22 44 -31
c68 -49 67 -48 79 -15 6 17 14 29 19 26 4 -2 16 2 26 10 18 14 18 15 -11 38
-25 21 -27 27 -17 40 9 10 10 17 2 22 -18 11 -11 31 16 44 23 10 30 9 50 -10
28 -26 50 -20 65 17 14 37 2 82 -26 100 -21 14 -27 14 -57 0 -18 -9 -40 -27
-48 -40 -14 -23 -15 -20 -16 57 0 71 -4 89 -29 135 -15 28 -31 52 -35 52 -4 0
-16 -16 -25 -36z"/>
<path d="M424 1749 c-163 -15 -206 -27 -156 -43 19 -7 42 -38 48 -69 5 -30 18
-329 18 -429 0 -91 -11 -118 -45 -118 -24 0 -35 -20 -18 -31 11 -6 165 -5 297
4 6 0 12 8 12 17 0 12 -13 21 -44 29 -43 10 -45 13 -51 53 -11 76 -13 193 -3
212 8 16 18 17 73 13 72 -6 85 -11 85 -35 0 -9 5 -24 10 -32 9 -13 11 -13 20
0 11 16 13 142 4 178 -8 27 -34 30 -34 4 0 -34 -36 -55 -95 -57 -29 -1 -59 1
-65 5 -6 4 -12 51 -14 118 -3 127 -11 118 107 121 l78 2 16 -40 c25 -64 31
-57 48 57 8 48 21 43 -130 46 -49 1 -122 -1 -161 -5z"/>
<path d="M1425 862 c-108 -7 -131 -21 -71 -46 19 -8 37 -24 41 -36 9 -28 9
-200 0 -209 -9 -8 -250 -15 -280 -7 -25 6 -25 8 -25 117 l0 110 35 15 c20 8
35 21 35 31 0 14 -14 15 -122 10 -68 -4 -132 -9 -143 -11 -11 -2 -23 -5 -27
-5 -20 -2 -5 -22 26 -35 18 -8 36 -18 39 -23 9 -14 19 -225 19 -378 1 -142 -8
-179 -47 -197 -30 -13 -32 -24 -6 -33 21 -6 271 4 284 12 16 9 6 22 -28 34
-46 17 -53 39 -57 182 -2 100 2 106 67 108 174 5 225 3 236 -8 8 -8 13 -49 14
-114 2 -136 0 -146 -41 -161 -19 -7 -34 -18 -34 -26 0 -12 24 -14 145 -10 80
3 148 8 151 11 12 11 -5 37 -24 37 -46 0 -50 20 -58 332 l-7 237 37 22 c20 11
36 28 36 36 0 14 -42 15 -195 5z"/>
<path d="M436 815 c-70 -28 -111 -65 -127 -113 -15 -46 -6 -152 16 -185 17
-27 80 -62 125 -71 170 -31 210 -55 210 -126 0 -80 -59 -132 -149 -132 -82 1
-130 32 -151 99 -27 84 -50 64 -50 -44 0 -72 0 -73 33 -90 50 -28 236 -25 298
3 51 24 102 72 126 118 23 44 22 154 -1 192 -26 44 -55 58 -181 89 -60 15
-122 35 -137 43 -51 30 -48 116 6 156 21 16 42 21 95 21 79 0 119 -20 128 -65
7 -35 28 -57 38 -39 4 6 10 39 12 73 5 60 5 62 -23 75 -16 7 -69 15 -119 17
-77 3 -99 0 -149 -21z"/>
</g>
</svg>
